<svg width="383" height="383" viewBox="0 0 383 383" fill="none" xmlns="http://www.w3.org/2000/svg">
<g style="mix-blend-mode:multiply" clip-path="url(#clip0_1_107)">
<path d="M367.944 116.959C358.301 94.1557 344.498 73.672 326.919 56.0872C309.327 38.5076 288.839 24.6982 266.046 15.0556C242.437 5.06815 217.354 0.000732422 191.5 0.000732422C165.651 0.000732422 140.569 5.0674 116.958 15.0556C94.1549 24.6982 73.6713 38.5083 56.0857 56.0872C38.5068 73.672 24.6975 94.1557 15.0541 116.959C5.06742 140.57 0 165.652 0 191.5C0 217.354 5.06667 242.437 15.0549 266.047C24.6975 288.84 38.5076 309.328 56.0865 326.908C73.6713 344.499 94.1549 358.302 116.959 367.944C140.57 377.927 165.652 382.999 191.5 382.999C217.354 382.999 242.438 377.927 266.047 367.944C288.84 358.301 309.328 344.498 326.92 326.908C344.499 309.328 358.302 288.839 367.945 266.047C377.927 242.437 383 217.354 383 191.5C382.999 165.652 377.927 140.57 367.944 116.959Z" fill="black"/>
<path d="M0.0762939 196.877C0.730854 220.825 5.75638 244.074 15.0549 266.047C24.6975 288.84 38.5076 309.328 56.0864 326.908C73.6713 344.499 94.1549 358.302 116.959 367.944C140.57 377.927 165.652 382.999 191.5 382.999C217.354 382.999 242.438 377.927 266.047 367.944C288.84 358.301 309.328 344.498 326.92 326.908C344.499 309.328 358.302 288.839 367.945 266.047C377.25 244.074 382.275 220.825 382.93 196.877H0.0762939Z" fill="black"/>
<path d="M382.087 210.365C382.695 204.123 382.999 197.835 382.999 191.5C382.999 184.382 382.613 177.322 381.854 170.338C372.339 171.805 358.676 173.717 341.46 175.615C308.778 179.221 256.252 183.522 191.5 183.522C126.753 183.522 74.2204 179.221 41.5455 175.615C24.3235 173.716 10.6652 171.805 1.15128 170.338C0.386004 177.322 0 184.383 0 191.5C0 197.835 0.303716 204.124 0.911896 210.365C31.9792 215.041 100.425 223.409 191.5 223.409C282.574 223.409 351.019 215.041 382.087 210.365Z" fill="white"/>
<path d="M231.403 199.477C231.403 221.514 213.531 239.375 191.5 239.375C169.467 239.375 151.602 221.514 151.602 199.477C151.602 177.444 169.467 159.585 191.5 159.585C213.531 159.586 231.403 177.445 231.403 199.477Z" fill="black"/>
<path d="M191.5 127.665C151.9 127.665 119.687 159.884 119.687 199.478C119.687 239.072 151.901 271.283 191.5 271.283C231.099 271.283 263.311 239.071 263.311 199.478C263.311 159.884 231.099 127.665 191.5 127.665ZM191.5 231.404C173.904 231.404 159.585 217.074 159.585 199.478C159.585 181.881 173.903 167.563 191.5 167.563C209.102 167.563 223.408 181.881 223.408 199.478C223.408 217.073 209.102 231.404 191.5 231.404Z" fill="white"/>
<path opacity="0.2" d="M367.944 116.959C358.301 94.1557 344.498 73.672 326.919 56.0872C309.327 38.5076 288.839 24.6982 266.046 15.0556C242.437 5.06815 217.354 0.000732422 191.5 0.000732422C188.829 0.000732422 186.17 0.0590818 183.522 0.164559C206.555 1.09965 228.902 6.09675 250.081 15.0556C272.895 24.6982 293.374 38.5083 310.952 56.0872C328.532 73.672 342.348 94.1557 351.989 116.959C361.982 140.57 367.032 165.652 367.032 191.501C367.032 217.354 361.982 242.438 351.989 266.048C342.347 288.841 328.532 309.329 310.952 326.908C293.374 344.5 272.895 358.302 250.081 367.945C228.902 376.899 206.554 381.901 183.522 382.836C186.17 382.942 188.828 383 191.5 383C217.354 383 242.437 377.927 266.046 367.945C288.839 358.302 309.327 344.499 326.919 326.908C344.498 309.329 358.301 288.84 367.944 266.048C377.927 242.438 382.999 217.354 382.999 191.501C382.999 165.652 377.927 140.57 367.944 116.959Z" fill="black"/>
<path opacity="0.1" d="M15.0549 266.047C24.6975 288.84 38.5076 309.328 56.0865 326.908C73.6713 344.499 94.1549 358.302 116.959 367.944C140.57 377.927 165.652 382.999 191.5 382.999C194.171 382.999 196.83 382.941 199.478 382.835C176.445 381.9 154.092 376.897 132.913 367.944C110.11 358.301 89.6321 344.498 72.0472 326.908C54.4624 309.328 40.6583 288.839 31.0097 266.047C21.0215 242.438 15.9608 217.354 15.9608 191.5C15.9608 165.652 21.0215 140.569 31.0089 116.958C40.6575 94.1549 54.4616 73.6705 72.0465 56.0924C89.6314 38.5076 110.109 24.6975 132.912 15.0549C154.092 6.096 176.445 1.0989 199.477 0.163811C196.83 0.0590818 194.17 0.000732422 191.5 0.000732422C165.651 0.000732422 140.569 5.0674 116.958 15.0556C94.1549 24.6982 73.6713 38.5083 56.0857 56.0932C38.5068 73.672 24.6975 94.1557 15.0541 116.959C5.06742 140.57 0 165.652 0 191.5C0 217.354 5.06742 242.438 15.0549 266.047Z" fill="black"/>
</g>
<defs>
<clipPath id="clip0_1_107">
<rect width="383" height="383" fill="white"/>
</clipPath>
</defs>
</svg>
