<svg width="23" height="23" viewBox="0 0 23 23" fill="none" xmlns="http://www.w3.org/2000/svg">
<g clip-path="url(#clip0_9_16)">
<path d="M8.62508 15.3333C10.305 15.3333 11.8369 14.7114 13.0138 13.6912L19.1667 19.8442L19.8443 19.1667L13.6913 13.0137C14.7115 11.8368 15.3334 10.3049 15.3334 8.62499C15.3334 4.92007 12.33 1.91666 8.62508 1.91666C4.92016 1.91666 1.91675 4.92007 1.91675 8.62499C1.91675 12.3299 4.92016 15.3333 8.62508 15.3333ZM8.62508 2.87499C11.7957 2.87499 14.3751 5.45434 14.3751 8.62499C14.3751 11.7956 11.7957 14.375 8.62508 14.375C5.45444 14.375 2.87508 11.7956 2.87508 8.62499C2.87508 5.45434 5.45444 2.87499 8.62508 2.87499Z" fill="#554339"/>
</g>
<defs>
<clipPath id="clip0_9_16">
<rect width="23" height="23" fill="white"/>
</clipPath>
</defs>
</svg>
